<?xml version="1.0" encoding="UTF-8"?>
<svg xmlns="http://www.w3.org/2000/svg" xmlns:xlink="http://www.w3.org/1999/xlink" width="20px" height="20px" viewBox="0 0 20 20" version="1.1">
<g id="surface1">
<path style=" stroke:none;fill-rule:nonzero;fill:rgb(0%,0%,0%);fill-opacity:1;" d="M 10 1.667969 C 5.398438 1.667969 1.667969 5.398438 1.667969 10 C 1.667969 14.601562 5.398438 18.332031 10 18.332031 C 14.601562 18.332031 18.332031 14.601562 18.332031 10 C 18.328125 5.398438 14.601562 1.671875 10 1.667969 Z M 10 16.667969 C 6.316406 16.667969 3.332031 13.683594 3.332031 10 C 3.332031 6.316406 6.316406 3.332031 10 3.332031 C 13.683594 3.332031 16.667969 6.316406 16.667969 10 C 16.664062 13.679688 13.679688 16.664062 10 16.667969 Z M 10 16.667969 "/>
<path style=" stroke:none;fill-rule:nonzero;fill:rgb(0%,0%,0%);fill-opacity:1;" d="M 10 10.488281 L 7.253906 7.746094 L 6.078125 8.921875 L 10 12.84375 L 13.921875 8.921875 L 12.746094 7.746094 Z M 10 10.488281 "/>
</g>
</svg>
