<?xml version="1.0" encoding="UTF-8"?>
<svg xmlns="http://www.w3.org/2000/svg" xmlns:xlink="http://www.w3.org/1999/xlink" width="128px" height="128px" viewBox="0 0 128 128" version="1.1">
<g id="surface1">
<path style=" stroke:none;fill-rule:nonzero;fill:rgb(0%,0%,0%);fill-opacity:1;" d="M 64 0 C 28.648438 0 0 28.648438 0 64 C 0 99.351562 28.648438 128 64 128 C 99.351562 128 128 99.351562 128 64 C 128 28.648438 99.351562 0 64 0 Z M 64 118 C 34.171875 118 10 93.828125 10 64 C 10 34.171875 34.171875 10 64 10 C 93.828125 10 118 34.171875 118 64 C 118 93.828125 93.828125 118 64 118 Z M 64 118 "/>
<path style=" stroke:none;fill-rule:nonzero;fill:rgb(0%,0%,0%);fill-opacity:1;" d="M 83.921875 60 L 80 60 L 80.015625 48.445312 C 80.015625 41.570312 72.875 36 64.046875 36 C 55.226562 36 48.078125 41.570312 48.078125 48.445312 L 48 60 L 43.992188 60 C 41.789062 60 40.085938 61.78125 40.085938 63.5 L 40 88.5 C 40 90.21875 41.867188 92 44.078125 92 L 84.015625 92 C 86.210938 92 87.914062 90.21875 87.914062 88.5 L 88 63.5 C 88 61.78125 86.117188 60 83.921875 60 Z M 56 48 C 56 44.570312 59.648438 42.21875 64.046875 42.21875 C 68.445312 42.21875 72 44.570312 72 48 L 71.945312 60 L 56 60 Z M 56 48 "/>
</g>
</svg>
