<?xml version="1.0" encoding="UTF-8"?>
<svg xmlns="http://www.w3.org/2000/svg" xmlns:xlink="http://www.w3.org/1999/xlink" width="81px" height="48px" viewBox="0 0 81 48" version="1.1">
<g id="surface1">
<path style=" stroke:none;fill-rule:nonzero;fill:rgb(0%,0%,0%);fill-opacity:1;" d="M 35.367188 1.074219 C 35.367188 0.308594 34.875 0 34.261719 0 L 30.355469 0 C 28.808594 0 27.707031 0.785156 27.707031 2.707031 L 27.707031 36.628906 C 27.707031 37.378906 28.199219 37.707031 28.824219 37.707031 L 32.71875 37.707031 C 34.265625 37.707031 35.367188 36.914062 35.367188 34.992188 Z M 79.945312 12.515625 C 79.945312 11.882812 79.480469 11.566406 78.847656 11.566406 L 74.121094 11.566406 C 73.171875 11.566406 72.75 11.90625 72.398438 12.683594 L 65.722656 27.722656 L 56.417969 12.84375 C 55.851562 11.917969 55.242188 11.566406 53.859375 11.566406 L 48.234375 11.566406 C 47.066406 11.566406 46.441406 11.882812 45.746094 12.632812 L 35.835938 23.441406 L 44.71875 36.589844 C 45.234375 37.347656 45.667969 37.699219 46.441406 37.699219 L 51.730469 37.699219 C 52.527344 37.699219 52.988281 37.378906 52.988281 36.703125 C 52.988281 36.292969 52.800781 36.023438 52.527344 35.644531 L 44.71875 23.90625 L 50.644531 17.433594 L 62.34375 34.992188 L 57.183594 46.089844 C 57.035156 46.417969 56.863281 46.734375 56.863281 47.050781 C 56.863281 47.691406 57.328125 48 57.960938 48 L 62.660156 48 C 63.613281 48 64.027344 47.667969 64.378906 46.886719 L 79.636719 13.476562 C 79.785156 13.148438 79.945312 12.84375 79.945312 12.515625 M 10.582031 20.605469 C 9.027344 20.25 8.542969 19.804688 8.542969 19.007812 C 8.542969 18.386719 9.027344 17.894531 10.429688 17.894531 L 21.792969 17.894531 C 23.675781 17.894531 24.445312 16.777344 24.445312 15.207031 L 24.445312 12.691406 C 24.445312 12.058594 24.136719 11.566406 23.390625 11.566406 L 10.082031 11.566406 C 4.160156 11.566406 1.054688 15.050781 1.054688 19.488281 C 1.054688 23.441406 3.441406 25.847656 8.222656 26.929688 L 15.855469 28.664062 C 17.410156 29.011719 17.886719 29.460938 17.886719 30.269531 C 17.886719 30.878906 17.410156 31.371094 16.011719 31.371094 L 4.171875 31.371094 C 2.277344 31.371094 1.511719 32.484375 1.511719 34.066406 L 1.511719 36.566406 C 1.511719 37.195312 1.816406 37.699219 2.566406 37.699219 L 15.550781 37.699219 C 22.558594 37.699219 25.382812 34.21875 25.382812 30.089844 C 25.382812 25.824219 22.964844 23.414062 18.214844 22.339844 Z M 10.582031 20.605469 "/>
</g>
</svg>
