<?xml version="1.0" encoding="UTF-8"?>
<svg xmlns="http://www.w3.org/2000/svg" xmlns:xlink="http://www.w3.org/1999/xlink" width="24px" height="24px" viewBox="0 0 24 24" version="1.1">
<g id="surface1">
<path style="fill:none;stroke-width:1.5;stroke-linecap:round;stroke-linejoin:miter;stroke:rgb(10.980392%,15.294118%,29.803923%);stroke-opacity:1;stroke-miterlimit:4;" d="M 12 10 L 12 14 M 10.269531 11 L 13.730469 13 M 13.730469 11 L 10.265625 13 "/>
<path style="fill:none;stroke-width:1.5;stroke-linecap:round;stroke-linejoin:miter;stroke:rgb(10.980392%,15.294118%,29.803923%);stroke-opacity:1;stroke-miterlimit:4;" d="M 6.730469 10 L 6.730469 14 M 5 11 L 8.464844 13 M 8.464844 11 L 5 13 "/>
<path style="fill:none;stroke-width:1.5;stroke-linecap:round;stroke-linejoin:miter;stroke:rgb(10.980392%,15.294118%,29.803923%);stroke-opacity:1;stroke-miterlimit:4;" d="M 17.269531 10 L 17.269531 14 M 15.535156 11 L 19 13 M 19 11 L 15.535156 13 "/>
<path style="fill:none;stroke-width:1.5;stroke-linecap:round;stroke-linejoin:miter;stroke:rgb(10.980392%,15.294118%,29.803923%);stroke-opacity:1;stroke-miterlimit:4;" d="M 22 12 C 22 15.769531 22 17.65625 20.828125 18.828125 C 19.65625 20 17.769531 20 14 20 L 10 20 C 6.230469 20 4.34375 20 3.171875 18.828125 C 2 17.65625 2 15.769531 2 12 C 2 8.230469 2 6.34375 3.171875 5.171875 C 4.34375 4 6.230469 4 10 4 L 14 4 C 17.769531 4 19.65625 4 20.828125 5.171875 C 21.480469 5.824219 21.769531 6.699219 21.898438 8 "/>
</g>
</svg>
